<svg width="256" height="256" viewBox="0 0 256 256" fill="none" xmlns="http://www.w3.org/2000/svg"><path fill="#0068A3" d="M0 0h256v256H0z"/><path d="M128 40c-26.467 0-48 21.442-48 47.797 0 26.353 21.533 47.798 48 47.798s48-21.445 48-47.797C176 61.441 154.467 40 128 40zm-26.992 72.066l7.958-18.498 13.242 13.186-18.573 7.925a1.994 1.994 0 01-2.198-.421 1.972 1.972 0 01-.429-2.192zm10.336-21.767l25.184-25.078c.026.026.032.06.058.083l14.07 14.014-25.187 25.078-14.125-14.097zm28.067-27.806c-.022-.019-.057-.028-.083-.057l5.946-5.917a2.004 2.004 0 012.825 0l11.319 11.267a1.992 1.992 0 01.433 2.171c-.1.242-.248.461-.433.646l-5.93 5.908-14.077-14.02v.002zM88.09 170h12.092c-.046-9.136-7.091-15.182-18.364-15.182-11.068 0-18.886 5.955-18.818 14.818-.023 7.273 5.023 11.319 13.273 13.091l4.636 1c5.182 1.137 6.955 2.432 7 4.546-.045 2.295-2.136 3.909-6.182 3.909-4.84 0-7.704-2.273-7.909-6.546h-12c.046 11.682 7.955 16.909 20.091 16.909 11.795 0 18.864-5.09 18.909-14.272-.045-7.091-4.272-12.068-14.545-14.273l-3.819-.818c-4.408-.932-6.386-2.227-6.272-4.455.022-2.045 1.727-3.545 5.636-3.545 4.091 0 6.023 1.795 6.273 4.818zm60.99 2.909c-1-11.545-9.455-18.091-21.182-18.091-12.546 0-22.455 8.364-22.455 23.909 0 15.478 9.637 23.909 22.455 23.909 13.636 0 20.545-9.454 21.182-17.363l-12.819-.091c-.636 3.977-3.454 6.454-8.091 6.454-6.159 0-9.727-4.363-9.727-12.909 0-8.091 3.455-12.909 9.818-12.909 4.864 0 7.637 2.864 8 7.091h12.819zm4.46-7.273h14V202h12.454v-36.364h14v-10.181H153.54v10.181z" fill="#fff"/></svg>
